<svg width="604" height="132" viewBox="0 0 604 132" fill="none" xmlns="http://www.w3.org/2000/svg">
<g clip-path="url(#clip0)">
<path d="M100.353 54.5431C98.6188 53.5336 96.7622 52.7512 94.8286 52.2156C95.328 50.269 95.5783 48.2667 95.5733 46.2569C95.5733 32.8501 84.8665 21.8173 71.0715 20.3896L71.056 20.4516C80.7576 21.9558 87.9128 30.31 87.9079 40.1276C87.9221 43.6239 86.9948 47.0597 85.2233 50.0742C84.961 50.5513 84.6708 51.0124 84.3544 51.4553C83.4906 52.7138 82.4801 53.8651 81.344 54.8847C73.7732 61.7537 62.2249 61.7537 54.6543 54.8847C53.5184 53.8651 52.5078 52.7139 51.6439 51.4553C51.3273 51.0125 51.0371 50.5513 50.775 50.0742C49.0036 47.0597 48.0762 43.6241 48.0904 40.1276C48.0853 30.31 55.2405 21.9558 64.9423 20.4516V20.3896C51.1473 21.8016 40.4249 32.8499 40.4249 46.2568C40.42 48.2665 40.6703 50.2686 41.1697 52.2154C39.2402 52.7486 37.3883 53.531 35.6611 54.543C23.8524 61.3552 19.6937 76.5466 25.792 89.3328L25.8231 89.3174C23.5465 83.9919 23.6984 77.9395 26.2397 72.735C28.7808 67.5304 33.4599 63.6885 39.0593 62.2086C40.742 61.7759 42.4735 61.5619 44.2111 61.5725C44.7543 61.5725 45.2507 61.6036 45.7784 61.65C47.3189 61.7699 48.84 62.0719 50.3095 62.55C54.9718 64.0673 58.9074 67.2567 61.3578 71.5034C61.362 71.5034 61.3658 71.505 61.3688 71.5078C61.3718 71.5107 61.3734 71.5147 61.3732 71.5189V71.5344C63.7969 75.7097 64.6032 80.6297 63.6387 85.3603C63.3177 86.9517 62.8072 88.4991 62.118 89.969C61.9319 90.3569 61.7301 90.7604 61.5284 91.1483C58.3707 96.8285 52.6414 100.612 46.1774 101.286C39.7134 101.959 33.327 99.4382 29.0661 94.5311L29.004 94.5931C37.2127 105.347 51.8145 108.869 63.2196 102.29C64.9599 101.293 66.566 100.078 67.999 98.6742C69.4349 100.074 71.0405 101.289 72.7783 102.29C84.199 108.869 98.8164 105.347 107.01 94.5622L106.948 94.5156C102.694 99.4341 96.3065 101.965 89.8386 101.294C83.3709 100.623 77.6385 96.835 74.4853 91.1483C74.2681 90.7604 74.0664 90.3569 73.8801 89.969C73.1909 88.4991 72.6804 86.9519 72.3594 85.3603C71.4028 80.6297 72.2084 75.7124 74.6249 71.5344V71.5189C74.6249 71.5147 74.6265 71.5108 74.6293 71.5078C74.6321 71.5049 74.6361 71.5033 74.6404 71.5034C77.0908 67.2567 81.0265 64.0673 85.6886 62.55C87.158 62.0719 88.679 61.7699 90.2196 61.65C90.7471 61.6034 91.2591 61.5725 91.7868 61.5725C98.4905 61.5333 104.762 64.8752 108.469 70.4612C112.175 76.0472 112.817 83.1249 110.175 89.2864L110.221 89.3019C116.289 76.5155 112.161 61.3552 100.353 54.5431Z" fill="#FF0000"/>
<path d="M75.3389 84.3519C75.3521 84.4823 75.3728 84.6119 75.4009 84.7398C75.6674 86.0963 76.1 87.4149 76.6889 88.6658C76.8441 88.9605 77.0148 89.3019 77.1855 89.6278C77.2746 89.7936 77.373 89.9542 77.4802 90.1089C86.5863 86.2974 92.5101 77.3872 92.501 67.5157C92.507 66.5715 92.45 65.6281 92.3303 64.6916C92.1807 64.6785 92.0304 64.6734 91.8803 64.6761C91.3528 64.6761 90.9337 64.7072 90.4992 64.7381C89.1907 64.8369 87.8987 65.0922 86.651 65.4986C86.5241 65.5469 86.3945 65.5884 86.263 65.6227C86.3382 66.2509 86.3746 66.883 86.3716 67.5158C86.3748 74.8238 82.0409 81.4374 75.3389 84.3519Z" fill="#FF0000"/>
<path d="M53.4434 48.4913C53.6599 48.8903 53.9036 49.2741 54.1727 49.6397C54.9011 50.7151 55.7556 51.6997 56.7175 52.5724C56.8107 52.65 56.8882 52.7277 56.9813 52.8052C63.5021 47.9017 72.4797 47.9017 79.0003 52.8052C79.0901 52.7412 79.1733 52.6684 79.2485 52.5879C80.2122 51.7283 81.0668 50.7538 81.7933 49.6861C82.0529 49.3333 82.2913 48.9656 82.5072 48.5843C82.6158 48.3825 82.7399 48.1963 82.8331 47.9947C74.0652 41.3328 61.9317 41.3328 53.1641 47.9947C53.2572 48.1654 53.3502 48.3206 53.4434 48.4913Z" fill="#FF0000"/>
<path d="M49.3475 65.4982C48.1097 65.095 46.8282 64.8397 45.5302 64.7378C45.0648 64.7067 44.6613 64.6757 44.2113 64.6757H44.0407C43.9164 64.6731 43.7919 64.6784 43.6682 64.6912C43.5485 65.6278 43.4915 66.5712 43.4975 67.5153C43.4884 77.3914 49.4198 86.3039 58.5337 90.1086C58.6422 89.9534 58.7199 89.7981 58.813 89.6431C58.9682 89.3638 59.1544 88.9913 59.3251 88.619C59.9039 87.3927 60.3313 86.1004 60.5976 84.7708C60.6287 84.6312 60.6441 84.4915 60.6751 84.3519C53.9665 81.4427 49.6258 74.8278 49.6268 67.5157C49.6238 66.8881 49.6602 66.2611 49.7355 65.6381C49.6114 65.5914 49.4716 65.5448 49.3475 65.4982Z" fill="#FF0000"/>
</g>
<path d="M175.473 65.6013C175.473 73.2771 173.295 79.1561 168.94 83.2385C164.605 87.3209 158.335 89.3621 150.131 89.3621H137V42.7336H151.558C159.128 42.7336 165.007 44.7429 169.193 48.7615C173.38 52.7801 175.473 58.3934 175.473 65.6013ZM165.26 65.8565C165.26 55.8419 160.862 50.8346 152.066 50.8346H146.832V81.1973H151.051C160.524 81.1973 165.26 76.0837 165.26 65.8565Z" fill="black"/>
<path d="M213.471 89.3621L210.109 78.2631H193.203L189.841 89.3621H179.248L195.614 42.5422H207.635L224.065 89.3621H213.471ZM207.762 69.9708C204.653 59.9136 202.898 54.2259 202.497 52.9076C202.116 51.5894 201.841 50.5475 201.672 49.7821C200.974 52.5037 198.976 59.2332 195.677 69.9708H207.762Z" fill="black"/>
<path d="M271.07 89.3621H258.573L238.401 54.0877H238.115C238.517 60.3176 238.718 64.7615 238.718 67.4193V89.3621H229.932V42.7336H242.334L262.474 77.6571H262.696C262.379 71.5973 262.221 67.313 262.221 64.804V42.7336H271.07V89.3621Z" fill="black"/>
<path d="M300.377 63.1774H318.773V87.3528C315.791 88.3309 312.979 89.0113 310.336 89.394C307.714 89.798 305.029 90 302.28 90C295.281 90 289.931 87.9375 286.231 83.8126C282.552 79.6664 280.712 73.7236 280.712 65.9841C280.712 58.4571 282.848 52.5887 287.119 48.3787C291.411 44.1688 297.353 42.0638 304.944 42.0638C309.702 42.0638 314.29 43.0206 318.71 44.9342L315.443 52.8439C312.059 51.1429 308.539 50.2924 304.881 50.2924C300.631 50.2924 297.226 51.7276 294.668 54.598C292.109 57.4684 290.83 61.3276 290.83 66.1754C290.83 71.2359 291.855 75.1056 293.906 77.7847C295.979 80.4425 298.981 81.7714 302.914 81.7714C304.965 81.7714 307.048 81.5588 309.163 81.1336V71.406H300.377V63.1774Z" fill="black"/>
<path d="M356.548 89.3621H329.842V42.7336H356.548V50.8346H339.675V61.0724H355.375V69.1734H339.675V81.1973H356.548V89.3621Z" fill="black"/>
<path d="M376.086 63.4326H379.258C382.367 63.4326 384.661 62.9116 386.141 61.8698C387.621 60.8279 388.361 59.1907 388.361 56.9581C388.361 54.7468 387.6 53.1734 386.077 52.2379C384.576 51.3023 382.24 50.8346 379.068 50.8346H376.086V63.4326ZM376.086 71.4698V89.3621H366.254V42.7336H379.766C386.067 42.7336 390.729 43.8924 393.753 46.21C396.777 48.5063 398.289 52.004 398.289 56.703C398.289 59.4458 397.538 61.891 396.037 64.0385C394.535 66.1648 392.41 67.8339 389.662 69.0458C396.639 79.5282 401.186 86.3003 403.3 89.3621H392.389L381.32 71.4698H376.086Z" fill="black"/>
<path d="M439.363 89.3621H404.854V82.9515L427.088 50.8983H405.457V42.7336H438.76V49.1123L416.558 81.1973H439.363V89.3621Z" fill="black"/>
<path d="M488.842 65.9841C488.842 73.7023 486.939 79.6346 483.133 83.7807C479.327 87.9269 473.871 90 466.767 90C459.662 90 454.207 87.9269 450.401 83.7807C446.594 79.6346 444.691 73.6811 444.691 65.9203C444.691 58.1595 446.594 52.2379 450.401 48.1555C454.228 44.0518 459.704 42 466.83 42C473.956 42 479.401 44.0625 483.165 48.1874C486.95 52.3123 488.842 58.2445 488.842 65.9841ZM455 65.9841C455 71.1934 455.983 75.1163 457.949 77.7528C459.916 80.3894 462.855 81.7076 466.767 81.7076C474.612 81.7076 478.534 76.4664 478.534 65.9841C478.534 55.4804 474.633 50.2286 466.83 50.2286C462.918 50.2286 459.969 51.5575 457.981 54.2153C455.993 56.8518 455 60.7748 455 65.9841Z" fill="black"/>
<path d="M539.59 89.3621H527.093L506.921 54.0877H506.636C507.037 60.3176 507.238 64.7615 507.238 67.4193V89.3621H498.453V42.7336H510.854L530.995 77.6571H531.217C530.9 71.5973 530.741 67.313 530.741 64.804V42.7336H539.59V89.3621Z" fill="black"/>
<path d="M578 89.3621H551.294V42.7336H578V50.8346H561.126V61.0724H576.826V69.1734H561.126V81.1973H578V89.3621Z" fill="black"/>
<defs>
<clipPath id="clip0">
<rect x="23" y="18" width="90" height="90" fill="white"/>
</clipPath>
</defs>
</svg>
